<svg xmlns="http://www.w3.org/2000/svg" xmlns:xlink="http://www.w3.org/1999/xlink" width="500" zoomAndPan="magnify" viewBox="0 0 375 374.999991" height="500" preserveAspectRatio="xMidYMid meet" version="1.0"><defs><g/><clipPath id="1a519e03bd"><path d="M 160.074219 98.90625 L 186 98.90625 L 186 186.65625 L 160.074219 186.65625 Z M 160.074219 98.90625 " clip-rule="nonzero"/></clipPath><clipPath id="3e9af8db81"><path d="M 163 99 L 214.6875 99 L 214.6875 186.65625 L 163 186.65625 Z M 163 99 " clip-rule="nonzero"/></clipPath></defs><g clip-path="url(#1a519e03bd)"><path fill="#12143d" d="M 147.355469 181.464844 C 145.609375 178.84375 143.976562 175.578125 142.457031 171.664062 C 140.9375 167.777344 139.671875 163.359375 138.636719 158.460938 C 137.601562 153.539062 137.097656 148.339844 137.097656 142.839844 C 137.097656 137.34375 137.558594 132.121094 138.5 127.21875 C 139.441406 122.296875 140.640625 117.902344 142.113281 114.039062 C 143.585938 110.171875 145.195312 106.90625 146.964844 104.285156 C 148.738281 101.660156 150.460938 99.867188 152.140625 98.945312 C 149.335938 98.945312 146.4375 99.40625 143.398438 100.351562 C 140.363281 101.292969 137.394531 102.628906 134.449219 104.398438 C 131.507812 106.171875 128.746094 108.355469 126.125 110.933594 C 123.523438 113.507812 121.199219 116.429688 119.199219 119.675781 C 117.199219 122.917969 115.609375 126.484375 114.4375 130.371094 C 113.261719 134.257812 112.6875 138.421875 112.6875 142.863281 C 112.6875 147.304688 113.261719 151.445312 114.4375 155.355469 C 115.609375 159.242188 117.199219 162.808594 119.199219 166.050781 C 121.199219 169.296875 123.5 172.21875 126.125 174.792969 C 128.722656 177.371094 131.507812 179.554688 134.449219 181.328125 C 137.394531 183.097656 140.363281 184.457031 143.398438 185.375 C 146.4375 186.320312 149.335938 186.78125 152.140625 186.78125 C 150.691406 185.859375 149.105469 184.113281 147.355469 181.464844 Z M 163.757812 98.992188 L 163.757812 170.746094 C 163.757812 172.929688 164.171875 175 165.023438 176.980469 C 165.851562 178.933594 167.003906 180.636719 168.453125 182.085938 C 169.902344 183.535156 171.605469 184.664062 173.558594 185.515625 C 173.859375 185.652344 174.179688 185.769531 174.480469 185.882812 C 176.160156 186.480469 177.929688 186.78125 179.769531 186.78125 C 181.632812 186.78125 183.496094 186.457031 185.359375 185.789062 L 185.359375 98.992188 Z M 163.757812 98.992188 " fill-opacity="1" fill-rule="nonzero"/></g><g clip-path="url(#3e9af8db81)"><path fill="#12143d" d="M 189.339844 186.757812 L 214.921875 186.757812 L 214.921875 165.363281 Z M 163.757812 99.269531 L 163.757812 170.722656 C 163.757812 172.90625 164.171875 174.976562 165.023438 176.957031 C 165.851562 178.914062 167.003906 180.613281 168.453125 182.0625 C 169.902344 183.511719 171.605469 184.640625 173.558594 185.492188 C 173.859375 185.628906 174.179688 185.746094 174.480469 185.859375 C 174.800781 185.746094 175.101562 185.628906 175.398438 185.492188 C 177.332031 184.664062 179.011719 183.511719 180.460938 182.0625 C 181.910156 180.613281 183.039062 178.933594 183.890625 177.003906 C 184.71875 175.070312 185.152344 173 185.152344 170.816406 L 185.152344 99.269531 Z M 163.757812 99.269531 " fill-opacity="1" fill-rule="nonzero"/></g><g fill="#12143d" fill-opacity="1"><g transform="translate(69.356851, 232.894161)"><g><path d="M 8.296875 -3.65625 L 20.328125 -3.65625 L 20.328125 0 L 3.796875 0 L 3.796875 -34.390625 L 8.296875 -34.390625 Z M 8.296875 -3.65625 "/></g></g></g><g fill="#12143d" fill-opacity="1"><g transform="translate(90.67503, 232.894161)"><g><path d="M 2.125 -13.625 C 2.125 -16.382812 2.679688 -18.804688 3.796875 -20.890625 C 4.921875 -22.984375 6.457031 -24.601562 8.40625 -25.75 C 10.363281 -26.90625 12.546875 -27.484375 14.953125 -27.484375 C 17.316406 -27.484375 19.367188 -26.972656 21.109375 -25.953125 C 22.859375 -24.929688 24.160156 -23.648438 25.015625 -22.109375 L 25.015625 -27.046875 L 29.5625 -27.046875 L 29.5625 0 L 25.015625 0 L 25.015625 -5.03125 C 24.128906 -3.457031 22.804688 -2.148438 21.046875 -1.109375 C 19.285156 -0.078125 17.238281 0.4375 14.90625 0.4375 C 12.5 0.4375 10.328125 -0.148438 8.390625 -1.328125 C 6.453125 -2.515625 4.921875 -4.175781 3.796875 -6.3125 C 2.679688 -8.445312 2.125 -10.882812 2.125 -13.625 Z M 25.015625 -13.5625 C 25.015625 -15.601562 24.601562 -17.378906 23.78125 -18.890625 C 22.957031 -20.410156 21.847656 -21.570312 20.453125 -22.375 C 19.054688 -23.1875 17.519531 -23.59375 15.84375 -23.59375 C 14.164062 -23.59375 12.632812 -23.195312 11.25 -22.40625 C 9.863281 -21.613281 8.757812 -20.457031 7.9375 -18.9375 C 7.113281 -17.425781 6.703125 -15.65625 6.703125 -13.625 C 6.703125 -11.550781 7.113281 -9.75 7.9375 -8.21875 C 8.757812 -6.6875 9.863281 -5.515625 11.25 -4.703125 C 12.632812 -3.898438 14.164062 -3.5 15.84375 -3.5 C 17.519531 -3.5 19.054688 -3.898438 20.453125 -4.703125 C 21.847656 -5.515625 22.957031 -6.6875 23.78125 -8.21875 C 24.601562 -9.75 25.015625 -11.53125 25.015625 -13.5625 Z M 25.015625 -13.5625 "/></g></g></g><g fill="#12143d" fill-opacity="1"><g transform="translate(124.034029, 232.894161)"><g><path d="M 39.828125 -27.046875 L 31.375 0 L 26.75 0 L 20.234375 -21.46875 L 13.71875 0 L 9.078125 0 L 0.59375 -27.046875 L 5.1875 -27.046875 L 11.390625 -4.34375 L 18.109375 -27.046875 L 22.703125 -27.046875 L 29.265625 -4.296875 L 35.375 -27.046875 Z M 39.828125 -27.046875 "/></g></g></g><g fill="#12143d" fill-opacity="1"><g transform="translate(164.499087, 232.894161)"><g><path d="M 8.296875 -22.65625 C 9.078125 -24.195312 10.195312 -25.394531 11.65625 -26.25 C 13.125 -27.101562 14.914062 -27.53125 17.03125 -27.53125 L 17.03125 -22.890625 L 15.84375 -22.890625 C 10.8125 -22.890625 8.296875 -20.160156 8.296875 -14.703125 L 8.296875 0 L 3.796875 0 L 3.796875 -27.046875 L 8.296875 -27.046875 Z M 8.296875 -22.65625 "/></g></g></g><g fill="#12143d" fill-opacity="1"><g transform="translate(182.905752, 232.894161)"><g><path d="M 28.46875 -14.5625 C 28.46875 -13.707031 28.421875 -12.800781 28.328125 -11.84375 L 6.703125 -11.84375 C 6.867188 -9.175781 7.78125 -7.09375 9.4375 -5.59375 C 11.101562 -4.101562 13.125 -3.359375 15.5 -3.359375 C 17.4375 -3.359375 19.050781 -3.804688 20.34375 -4.703125 C 21.644531 -5.609375 22.5625 -6.820312 23.09375 -8.34375 L 27.921875 -8.34375 C 27.203125 -5.738281 25.753906 -3.625 23.578125 -2 C 21.410156 -0.375 18.71875 0.4375 15.5 0.4375 C 12.925781 0.4375 10.628906 -0.132812 8.609375 -1.28125 C 6.585938 -2.4375 5 -4.070312 3.84375 -6.1875 C 2.695312 -8.3125 2.125 -10.769531 2.125 -13.5625 C 2.125 -16.363281 2.679688 -18.816406 3.796875 -20.921875 C 4.921875 -23.023438 6.492188 -24.644531 8.515625 -25.78125 C 10.535156 -26.914062 12.863281 -27.484375 15.5 -27.484375 C 18.0625 -27.484375 20.328125 -26.921875 22.296875 -25.796875 C 24.273438 -24.679688 25.796875 -23.144531 26.859375 -21.1875 C 27.929688 -19.226562 28.46875 -17.019531 28.46875 -14.5625 Z M 23.828125 -15.5 C 23.828125 -17.207031 23.445312 -18.675781 22.6875 -19.90625 C 21.9375 -21.144531 20.910156 -22.082031 19.609375 -22.71875 C 18.316406 -23.363281 16.878906 -23.6875 15.296875 -23.6875 C 13.023438 -23.6875 11.09375 -22.960938 9.5 -21.515625 C 7.90625 -20.066406 6.992188 -18.0625 6.765625 -15.5 Z M 23.828125 -15.5 "/></g></g></g><g fill="#12143d" fill-opacity="1"><g transform="translate(213.501289, 232.894161)"><g><path d="M 16.96875 -27.53125 C 20.257812 -27.53125 22.925781 -26.535156 24.96875 -24.546875 C 27.007812 -22.554688 28.03125 -19.6875 28.03125 -15.9375 L 28.03125 0 L 23.59375 0 L 23.59375 -15.296875 C 23.59375 -17.992188 22.914062 -20.054688 21.5625 -21.484375 C 20.21875 -22.921875 18.375 -23.640625 16.03125 -23.640625 C 13.664062 -23.640625 11.785156 -22.894531 10.390625 -21.40625 C 8.992188 -19.925781 8.296875 -17.773438 8.296875 -14.953125 L 8.296875 0 L 3.796875 0 L 3.796875 -27.046875 L 8.296875 -27.046875 L 8.296875 -23.1875 C 9.179688 -24.570312 10.390625 -25.640625 11.921875 -26.390625 C 13.453125 -27.148438 15.132812 -27.53125 16.96875 -27.53125 Z M 16.96875 -27.53125 "/></g></g></g><g fill="#12143d" fill-opacity="1"><g transform="translate(245.083776, 232.894161)"><g><path d="M 2.125 -13.5625 C 2.125 -16.363281 2.679688 -18.804688 3.796875 -20.890625 C 4.921875 -22.984375 6.476562 -24.601562 8.46875 -25.75 C 10.457031 -26.90625 12.734375 -27.484375 15.296875 -27.484375 C 18.617188 -27.484375 21.359375 -26.675781 23.515625 -25.0625 C 25.671875 -23.457031 27.09375 -21.222656 27.78125 -18.359375 L 22.9375 -18.359375 C 22.476562 -20.003906 21.582031 -21.300781 20.25 -22.25 C 18.914062 -23.207031 17.265625 -23.6875 15.296875 -23.6875 C 12.734375 -23.6875 10.660156 -22.804688 9.078125 -21.046875 C 7.492188 -19.285156 6.703125 -16.789062 6.703125 -13.5625 C 6.703125 -10.3125 7.492188 -7.796875 9.078125 -6.015625 C 10.660156 -4.242188 12.734375 -3.359375 15.296875 -3.359375 C 17.265625 -3.359375 18.90625 -3.816406 20.21875 -4.734375 C 21.539062 -5.660156 22.445312 -6.976562 22.9375 -8.6875 L 27.78125 -8.6875 C 27.050781 -5.925781 25.601562 -3.710938 23.4375 -2.046875 C 21.269531 -0.390625 18.554688 0.4375 15.296875 0.4375 C 12.734375 0.4375 10.457031 -0.132812 8.46875 -1.28125 C 6.476562 -2.4375 4.921875 -4.066406 3.796875 -6.171875 C 2.679688 -8.273438 2.125 -10.738281 2.125 -13.5625 Z M 2.125 -13.5625 "/></g></g></g><g fill="#12143d" fill-opacity="1"><g transform="translate(275.037791, 232.894161)"><g><path d="M 28.46875 -14.5625 C 28.46875 -13.707031 28.421875 -12.800781 28.328125 -11.84375 L 6.703125 -11.84375 C 6.867188 -9.175781 7.78125 -7.09375 9.4375 -5.59375 C 11.101562 -4.101562 13.125 -3.359375 15.5 -3.359375 C 17.4375 -3.359375 19.050781 -3.804688 20.34375 -4.703125 C 21.644531 -5.609375 22.5625 -6.820312 23.09375 -8.34375 L 27.921875 -8.34375 C 27.203125 -5.738281 25.753906 -3.625 23.578125 -2 C 21.410156 -0.375 18.71875 0.4375 15.5 0.4375 C 12.925781 0.4375 10.628906 -0.132812 8.609375 -1.28125 C 6.585938 -2.4375 5 -4.070312 3.84375 -6.1875 C 2.695312 -8.3125 2.125 -10.769531 2.125 -13.5625 C 2.125 -16.363281 2.679688 -18.816406 3.796875 -20.921875 C 4.921875 -23.023438 6.492188 -24.644531 8.515625 -25.78125 C 10.535156 -26.914062 12.863281 -27.484375 15.5 -27.484375 C 18.0625 -27.484375 20.328125 -26.921875 22.296875 -25.796875 C 24.273438 -24.679688 25.796875 -23.144531 26.859375 -21.1875 C 27.929688 -19.226562 28.46875 -17.019531 28.46875 -14.5625 Z M 23.828125 -15.5 C 23.828125 -17.207031 23.445312 -18.675781 22.6875 -19.90625 C 21.9375 -21.144531 20.910156 -22.082031 19.609375 -22.71875 C 18.316406 -23.363281 16.878906 -23.6875 15.296875 -23.6875 C 13.023438 -23.6875 11.09375 -22.960938 9.5 -21.515625 C 7.90625 -20.066406 6.992188 -18.0625 6.765625 -15.5 Z M 23.828125 -15.5 "/></g></g></g></svg>